<svg xmlns="http://www.w3.org/2000/svg" fill="none" viewBox="0 0 1206 1200" height="1200" width="1206">
<mask height="1200" width="1206" y="0" x="0" maskUnits="userSpaceOnUse" style="mask-type:luminance" id="mask0_50_1236">
<path fill="white" d="M1205.96 0H0.0117188V1199.97H1205.96V0Z"/>
</mask>
<g mask="url(#mask0_50_1236)">
<path fill="#1D1D1B" d="M1173.91 1052.34C1178.58 1045.02 1182.93 1034.78 1182.98 1024.43C1183.09 1006.56 1171.7 990.92 1161.46 981.388C1150.45 971.151 1133.22 963.936 1114.38 964.245C1095.21 964.554 1074.25 971.526 1058.23 978.696C1041.46 986.22 1025.86 994.714 1016.86 1006.61C1011.98 1013.05 1006.73 1024.59 1006.42 1033.5C1005.98 1046.54 1014.01 1060.35 1020.21 1069.16C1027.23 1079.13 1034.91 1086.32 1047.11 1090.34C1054.08 1073.79 1071.6 1066.11 1094.19 1063.09C1115.9 1060.2 1144.65 1060.91 1155.73 1071.16C1162.06 1065.85 1168.99 1059.98 1173.89 1052.34H1173.91ZM851.425 911.777C842.644 912.814 833.885 915.396 824.861 916.83C797.48 921.132 768.665 923.118 737.423 924.574C697.289 926.45 654.794 927.421 613.006 926.251C591.935 925.656 570.975 926.163 550.786 925.236C499.356 922.897 454.17 917.249 402.497 914.822C393.583 914.403 378.911 911.91 372.225 914.491C369.843 915.418 368.122 918.97 366.18 921.882C353.626 940.659 344.69 967.356 350.03 996.877C354.839 1023.4 366.776 1043.19 382.992 1058.74C385.044 1060.73 388.839 1064.61 390.737 1064.79C392.48 1064.94 396.606 1063.16 399.474 1062.43C420.677 1057.18 441.66 1054.02 468.754 1054.02C528.701 1054.02 571.57 1069.29 609.983 1090.67C626.001 1099.58 642.792 1109.89 657.067 1121.27C659.648 1123.32 661.855 1125.84 663.796 1125.97C666.995 1126.21 673.019 1123.96 677.586 1122.95C710.306 1115.69 738.724 1104.02 765.355 1092.02C788.831 1081.42 812.24 1071.69 835.628 1060.4C841.85 1057.4 853.058 1052.57 857.493 1048.29C860.78 1045.13 863.538 1039.06 866.23 1033.83C874.063 1018.59 880.682 998.995 880.682 977.681C880.682 955.662 872.893 938.055 863.869 923.868C861.994 920.912 856.875 911.204 852.771 911.424C852.506 911.424 852.131 911.755 852.087 911.755C851.867 911.755 851.624 911.733 851.425 911.755V911.777ZM1164.51 921.53C1164.18 904.519 1156.19 888.434 1147.7 876.476C1143.42 870.452 1138.38 865.025 1132.89 860.325C1124.44 853.088 1115.79 845.101 1100.94 846.204C1087.99 847.153 1073.45 850.308 1060.59 853.596C1036.76 859.707 1014.67 869.217 995.677 881.506C986.984 887.132 975.114 895.207 970.789 903.371C967.017 910.475 964.391 921.419 964.06 930.267C963.553 944.432 969.841 957.03 975.82 967.245C981.579 977.086 988.308 986.264 996.339 992.133C1010.97 971.945 1035.81 959.06 1063.59 950.764C1089.84 942.931 1131.32 939.445 1159.1 949.418C1161.18 940.857 1164.68 932.098 1164.49 921.508L1164.51 921.53ZM1057.23 791.398C1020.37 813.329 986.543 839.387 949.631 860.678C951.065 867.76 954.308 873.034 957.353 878.506C977.012 861.318 1001.57 847.749 1029.99 838.151C1057.08 828.995 1092.76 822 1127.51 826.722C1131.81 811.697 1124.82 798.061 1117.09 787.383C1112.04 780.411 1102.75 770.46 1094.24 767.878C1082.52 776.704 1069.86 783.919 1057.23 791.42V791.398ZM359.804 732.886C354.089 736.019 348.331 742.924 344.337 749.014C334.21 764.458 325.451 792.965 327.525 817.279C330.106 847.396 342.307 869.459 358.458 886.559C360.51 888.721 364.945 893.663 366.864 893.288C375.248 891.567 387.185 892.869 397.797 893.288C449.603 895.362 496.753 900.723 546.44 903.702C607.534 907.387 673.151 905.93 733.076 903.702C753.242 902.952 773.166 901.738 792.273 899.333C810.872 896.995 829.605 894.325 845.733 888.897C850.896 887.154 855.198 881.793 859.854 877.138C878.961 858.031 897.891 829.237 892.133 790.052C891.14 783.323 889.662 776.66 887.764 770.217C886.109 764.613 883.925 757.089 880.704 752.721C877.703 748.661 865.546 746.455 857.846 744.976C833.046 740.233 803.525 738.269 778.483 735.555C686.72 725.671 594.847 724.06 498.032 720.42C478.947 719.714 457.965 718.875 439.52 719.758C412.823 721.037 378.624 722.56 359.826 732.864L359.804 732.886ZM988.97 662.26C979.946 669.673 968.914 679.094 959.03 686.817C955.411 689.663 951.065 692.09 948.946 695.223C947.38 697.54 946.012 702.019 944.578 704.975C938.29 718.015 927.964 732.158 917.329 741.976C915.344 743.807 906.606 749.919 906.231 752.39C905.967 754.067 907.908 757.685 908.592 760.465C913.755 781.359 913.777 804.659 911.946 829.061C914.439 830.914 918.08 833.253 922.029 835.106C925.339 836.651 930.81 839.629 934.142 839.475C935.885 839.387 941.224 836.165 944.225 834.422C967.149 821.162 987.183 805.475 1008.45 791.707C1027.43 779.44 1046.14 768.937 1065.29 756.736C1070.16 753.625 1079.74 747.801 1082.78 743.609C1087.24 737.475 1092.43 723.994 1092.54 715.036C1092.67 704.953 1088.08 693.436 1084.13 684.765C1072.11 658.399 1050.66 636.997 1026.3 625.237C1016.66 639.336 1002.45 651.14 988.97 662.238V662.26ZM915.653 498.151C917.043 510.595 912.917 516.64 907.93 522.023C905.569 524.583 902.878 526.591 901.201 529.084C935.598 554.766 960.596 591.634 956.691 654.516C961.567 652.067 965.781 647.897 970.481 644.08C974.982 640.439 979.791 636.622 984.27 632.65C992.169 625.612 1003.66 615.97 1008.14 606.417C1016.37 588.876 1008.89 567.872 1000.75 553.619C994.795 543.205 987.117 535.085 979.24 528.069C962.516 513.176 942.548 501.284 916.358 497.136C915.939 497.268 915.675 497.577 915.675 498.151H915.653ZM399.143 700.584C446.514 696.569 497.348 699.018 544.763 700.915C618.235 703.85 689.853 705.35 758.626 712.013C780.689 714.153 804.055 716.581 826.891 718.743C846.638 720.618 867.289 722.096 884.388 727.149C887.08 727.943 890.125 729.62 891.449 729.51C894.847 729.201 900.98 721.39 903.231 719.096C914.461 707.645 923.529 694.517 929.464 678.741C933.745 667.335 937.385 655.244 937.209 642.094C937.01 628.679 933.149 615.948 929.133 605.446C921.146 584.574 908.085 567.982 891.471 554.325C875.078 540.844 856.103 528.599 835.319 521.362C813.52 513.772 788.985 508.631 763.7 504.218C738.504 499.805 712.16 496.165 685.352 493.451C618.103 486.678 533.775 479.22 464.76 489.083C460.943 537.711 444.682 577.138 421.052 606.77C397.334 636.534 362.297 656.744 305.042 651.493C307.403 665.194 312.102 677.285 317.817 687.81C323.553 698.378 330.481 708.218 339.329 715.72C355.656 705.262 377.058 702.46 399.187 700.584H399.143ZM28.8935 401.291C26.1797 407.226 23.0688 414.485 23.1791 422.141C23.4439 439.638 36.3069 458.304 45.706 466.864C56.4068 476.616 72.6017 487.185 92.4589 487.384C122.179 487.67 136.851 471.454 151.633 454.42C165.71 438.226 178.86 419.957 187.619 398.269C160.26 398.136 133.916 399.967 108.587 397.938C83.6113 395.93 60.6432 390.171 40.3226 384.148C35.2479 388.936 32.1148 394.253 28.8935 401.291ZM220.582 392.885C217.648 394.716 213.588 396.349 212.176 398.6C210.367 401.468 210.058 406.167 208.822 409.697C207.521 413.404 205.844 417.067 204.454 420.134C195.342 440.013 183.163 457.929 169.483 473.263C160.415 483.412 150.707 493.517 137.866 500.511C124.76 507.638 107.396 507.925 86.4135 507.903C93.4518 545.367 117.369 569.549 150.31 582.213C168.115 589.053 189.605 591.656 209.484 587.266C227.687 583.25 242.933 574.756 252.861 561.032C271.593 535.129 283.398 495.657 289.178 458.127C292.576 436.086 292.201 415.015 283.464 398.931C275.587 384.435 262.216 372.255 248.493 363.96C244.323 376.845 231.327 386.156 220.582 392.885ZM295.576 626.936C317.199 633.268 340.344 630.334 358.789 622.898C391.642 609.638 415.647 577.58 429.414 543.204C436.651 525.09 442.123 505.189 444.55 483.346C447.065 460.554 441.881 438.248 433.121 420.795C424.914 404.468 413.308 391.098 398.481 380.11C384.559 369.785 366.908 359.723 345.021 358.245C342.793 358.091 339.969 358.069 337.63 358.245C321.303 359.525 308.682 366.056 296.944 372.697C316.934 399.394 313.36 454.619 305.351 491.068C301.313 509.447 295.974 527.738 289.2 544.528C280.264 566.658 269.387 587.244 250.192 597.327C261.554 612.109 276.514 621.332 295.599 626.914L295.576 626.936ZM93.8048 235.836C84.7587 238.44 77.1687 243.713 70.2628 248.611C62.9818 253.774 56.7159 259.996 51.4206 266.085C40.9845 278.132 30.3277 295.584 29.2245 316.854C28.695 327.246 31.475 335.387 35.623 343.418C38.3368 348.67 43.1908 357.076 47.7359 360.231C51.1337 362.592 57.4659 364.246 62.8715 365.945C79.3751 371.174 97.0702 374.881 115.339 376.712C133.718 378.566 156.178 377.043 175.859 377.043C182.081 377.043 191.569 378.279 196.71 377.374C198.938 376.977 202.777 373.69 205.447 371.991C213.809 366.695 224.09 359.834 227.973 351.141C230.246 346.022 231.349 337.285 231.327 331.306C231.327 324.576 230.335 315.795 227.621 310.125C225.26 305.182 218.861 301.784 213.5 298.364C208.822 295.364 202.997 291.856 197.349 288.613C168.711 272.109 144.198 256.598 113.949 242.544C108.742 240.117 99.4531 235.196 94.4447 235.814C94.2241 235.836 93.9812 235.748 93.7606 235.814L93.8048 235.836ZM263.297 266.107C268.063 257.657 274.087 245.5 273.05 234.159C272.322 226.15 267.534 217.148 263.297 210.948C258.73 204.263 252.552 198.262 246.816 194.136C235.078 185.664 218.641 177.61 204.454 170.594C197.57 167.196 190.245 163.512 182.258 159.827C174.999 156.495 164.32 152.877 156.024 153.098C132.681 153.693 115.228 172.646 106.933 190.098C103.844 196.585 100.733 204.44 102.233 212.625C129.548 220.546 153.178 233.52 175.881 246.581C198.629 259.665 221.134 272.704 242.8 287.266C251.604 281.728 258.068 275.374 263.319 266.085L263.297 266.107ZM325.848 126.224C320.862 124.349 318.765 119.495 315.434 116.141C315.434 115.943 315.39 115.744 315.103 115.81C310.403 119.958 305.329 124.371 299.636 128.254C292.51 133.108 285.516 137.234 280.794 143.39C279.956 144.493 278.345 145.949 278.786 147.427C289.024 146.721 300.607 145.993 310.403 146.412C330.283 147.295 347.536 140.168 363.533 135.998C362.407 133.307 359.12 129.887 359.164 124.9C348.904 125.937 335.975 130.063 325.87 126.246L325.848 126.224ZM378.646 134.961C387.383 133.704 386.126 116.295 378.977 113.449C375.314 116.957 370.129 118.943 366.533 122.539C366.577 128.916 373.13 135.778 378.646 134.983V134.961ZM378.315 92.5991C382.595 82.4499 372.821 74.2423 368.563 69.3883C372.38 76.559 374.983 84.943 378.315 92.5991ZM764.362 207.264C767.76 192.9 764.826 176.044 761.34 165.233C751.411 134.344 733.892 111.817 710.218 96.3059C705.188 92.9964 698.789 90.834 695.766 86.5537C693.362 83.1559 693.097 79.0521 691.398 75.7866C686.566 66.542 676.902 58.8639 664.149 57.6283C651.198 56.3707 641.644 65.9022 637.254 72.7639C635.864 74.9262 635.158 78.3019 632.885 80.5083C629.068 84.215 620.971 85.8698 615.742 88.2526C609.718 90.9665 603.938 94.1657 599.26 96.9899C575.233 111.508 554.273 139.109 545.116 168.961C543.307 174.874 541.343 184.075 542.093 191.157C542.777 197.6 549.11 202.785 553.191 205.962C554.581 207.043 557.163 207.86 557.229 210C552.816 212.868 548.249 212.294 543.77 214.037C538.762 215.979 533.93 220.568 529.65 224.451C525.104 228.577 521.023 232.284 517.206 236.564C509.02 245.699 503.416 256.51 500.062 268.512C491.921 297.592 503.173 326.915 522.92 338.785C527.708 341.676 533.797 344.213 540.064 346.86C544.167 348.603 557.229 351.052 557.56 354.605C558.2 361.841 545.646 357.429 540.747 359.304C538.011 360.363 534.57 363.607 535.033 368.372C535.474 372.939 539.733 374.903 544.454 375.764C550.102 376.823 558.222 375.852 556.214 382.824C518.86 384.633 479.389 385.317 446.933 394.253C457.965 413.25 465.003 436.262 465.091 466.225C539.049 459.716 616.514 465.43 686.698 471.608C719.882 474.52 757.125 479.86 788.588 485.729C815.771 490.803 845.865 496.871 867.62 508.256C870.709 509.866 875.453 513.397 877.372 513.308C879.843 513.176 884.719 508.741 887.455 506.248C889.97 503.975 894.714 499.916 894.846 496.496C894.957 493.429 891.471 487.891 889.463 484.383C882.69 472.579 873.511 464.415 863.913 457.134C826.383 428.65 779.123 415.258 724.692 403.321C722.618 402.88 711.895 401.49 713.263 396.923C714.278 393.569 722.949 396.04 727.384 395.577C731.664 395.136 735.922 393.216 736.121 388.185C736.275 384.368 733.937 381.478 731.752 380.11C727.34 377.374 719.86 379.779 716.617 375.058C718.316 370.755 724.493 370.91 729.061 370.358C734.113 369.74 739.188 368.637 743.181 367.335C757.898 362.548 770.209 355.884 779.829 345.139C788.456 335.542 796.642 320.318 796.642 302.777C796.642 275.22 783.646 255.473 771.092 239.896C766.701 234.446 761.185 230.276 756.64 224.76C759.177 218.318 762.774 214.037 764.384 207.264H764.362ZM393.12 70.7341C392.017 61.8645 384.184 57.9152 378.999 54.2527C383.919 59.5479 388.288 65.3727 393.12 70.7341ZM332.246 35.4323C320.663 36.5576 310.138 44.2577 301.644 50.5679C279.139 67.2701 255.862 82.0307 232.695 96.6368C227.974 99.6154 222.37 101.535 218.575 105.727C219.788 109.235 225.966 109.522 224.973 114.133C220.847 116.626 217.758 112.787 213.213 113.118C204.697 113.736 198.21 124.018 194.371 130.262C190.245 137.013 187.178 145.927 192.694 150.428C204.41 155.503 221.796 164.791 234.063 171.609C238.741 174.213 243.683 177.743 247.853 179C254.185 180.92 259.039 177.809 261.312 173.948C264.423 168.608 262.856 149.656 259.966 145.022C258.267 142.308 253.766 143.103 253.92 137.962C259.216 135.954 261.996 141.382 269.718 139.639C271.152 139.308 273.138 137.41 275.432 135.601C281.522 130.813 287.104 127.217 292.907 123.157C301.335 117.266 308.241 109.698 314.772 105.33C317.662 103.388 321.568 101.204 325.186 98.9315C328.871 96.6369 333.526 95.2468 335.6 92.202C336.416 91.0106 337.034 80.1994 340.653 81.4349C343.388 82.3837 340.741 87.6348 341.336 89.8412C342.682 95.0482 352.986 93.6583 352.434 99.5934C349.412 100.763 347.47 98.1151 343.697 98.9315C341.028 99.7258 340.939 103.124 339.329 104.977C337.255 103.94 338.203 102.064 335.975 101.623C331.629 100.741 323.421 108.904 320.839 109.698C323.421 113.295 325.274 117.333 328.915 118.767C333.393 120.554 342.947 120.532 348.419 118.767C350.537 118.083 355.457 114.95 357.84 113.052C362.474 109.345 369.909 102.682 370.615 97.9165C371.166 94.2098 368.828 89.3779 367.261 85.4726C363.907 77.0664 360.841 70.9327 356.847 64.2916C350.758 54.1864 343.741 43.971 327.26 46.4641C321.788 47.3026 317.773 51.4063 311.793 51.5167C312.875 45.0079 322.472 40.3526 330.282 39.0729C339.77 37.5064 346.985 41.3895 352.148 44.7873C348.044 38.3888 343.41 34.2851 332.312 35.3662L332.246 35.4323ZM347.051 29.3869C353.185 32.1669 357.266 39.6686 361.503 44.8535C363.643 47.4791 365.937 50.1708 367.548 52.9288C368.497 54.5394 368.894 56.4149 369.909 57.9814C376.329 67.9542 389.06 75.3013 387.405 90.5914C386.721 96.9457 380.808 102.418 377.653 106.058C374.189 110.074 370.681 113.824 367.239 117.818C367.239 117.619 367.283 117.421 367.57 117.487C374.211 114.067 378.293 108.772 383.721 103.366C387.052 100.035 396.01 91.6063 396.495 85.8697C397.047 79.5595 389.678 72.3669 386.059 68.0424C381.713 62.8575 377.477 58.2461 373.946 53.9217C366.357 44.5887 358.171 31.4388 348.728 26.3421C335.953 19.4583 320.839 25.6581 313.073 33.0715C312.279 33.2701 312.279 34.0865 313.073 33.4025C322.715 29.9606 335.269 24.0034 347.029 29.3648L347.051 29.3869ZM1180.68 1199.97H1156.81C1157.23 1182.7 1154.45 1165.27 1154.45 1147.17C1154.45 1139.19 1155.24 1130.58 1151.07 1126.99C1148.47 1124.74 1141.58 1124.85 1141.65 1121.6C1141.74 1118.23 1150.01 1118.65 1151.4 1117.23C1155.7 1112.82 1150.43 1097.71 1148.38 1093.03C1145.03 1085.4 1141.12 1078.95 1133.24 1076.22C1120.47 1071.78 1102.18 1074.3 1088.19 1078.23C1066.83 1084.25 1051.43 1099.47 1063.66 1122.95C1067.67 1120.81 1074.31 1119.09 1081.13 1118.91C1084.11 1118.84 1087.64 1118.56 1089.54 1120.26C1087.64 1124.96 1080.93 1124.47 1076.08 1126.3C1067.78 1129.46 1063.59 1134.84 1058.25 1141.44C1056.33 1143.8 1054.23 1145.98 1051.87 1148.17C1038.04 1160.85 1031.16 1179.36 1024.98 1199.95H1001.77C1003.4 1183.93 1009.27 1170.39 1015.56 1158.58C1022.02 1146.45 1028.97 1135.59 1038.77 1126.63C1037.71 1122.64 1036.34 1118.98 1036.08 1114.19C1002.36 1100.53 978.313 1068.23 984.623 1018.34C960.486 995.73 938.444 971.239 941.246 922.169C941.401 919.389 941.798 916.168 942.261 913.101C942.636 910.586 944.181 907.21 943.938 905.026C943.673 902.577 940.055 899.113 937.893 895.936C931.737 886.978 926.53 876.365 925.449 863.326C918.83 861.539 912.63 859.332 906.96 856.596C900.12 869.879 892.155 881.705 881.741 892.913C880.549 894.193 877.394 896.907 877.372 897.282C877.328 897.877 881.145 902.334 882.756 904.673C894.869 922.412 901.951 942.181 903.275 971.261C904.753 1003.72 898.024 1030.85 885.8 1052.63C889.198 1057.15 893.589 1060.64 897.229 1065.08C921.654 1094.86 931.163 1143.07 927.17 1199.93H904.643C907.511 1144.22 897.406 1096.67 866.649 1072.47C835.297 1087.65 804.209 1102.03 772.151 1115.84C740.048 1129.68 706.313 1142.67 666.223 1147.79C665.958 1163.94 666.643 1183.2 665.892 1199.91H645.726C646.234 1187 647.16 1172.22 646.057 1158.54C645.704 1154.21 645.814 1149.12 644.711 1145.76C643.74 1142.81 637.805 1138.46 633.944 1135.68C606.078 1115.58 574.019 1097.6 538.1 1086.59C506.527 1076.92 467.055 1071.05 429.812 1078.87C424.274 1080.03 418.405 1081.47 412.999 1082.9C407.461 1084.38 401.548 1085.64 397.202 1087.6C390.627 1090.6 382.11 1101.59 377.697 1107.44C360.708 1130.01 351.375 1159.75 354.839 1199.91H331.981C327.569 1146.64 340.719 1105.36 366.29 1079.86C347.227 1061.7 332.202 1037.96 327.282 1004.53C322.009 968.68 327.922 931.524 343.079 909.372C334.32 899.532 326.046 889.228 319.207 876.762C312.411 864.385 307.778 850.33 305.748 833.385C301.401 796.848 307.557 760.62 321.214 737.21C316.758 731.076 311.639 725.45 307.094 719.383C293.216 700.893 283.464 678.808 280.529 649.441C280.529 649.11 280.264 649.044 280.198 648.757C256.149 641.189 238.652 627.091 225.061 609.087C181.794 619.854 139.079 609.572 112.735 591.943C84.891 573.299 65.3869 546.514 61.614 506.535C24.856 493.164 -7.66576 458.657 1.7554 404.314C4.46923 388.671 11.5736 376.867 19.5827 366.982C10.1395 354.406 6.47697 339.138 6.12396 319.899C5.10903 262.621 41.8448 231.887 78.7572 213.64C77.1686 184.362 88.4874 164.902 102.63 150.759C116.927 136.462 138.02 126.71 168.534 130.24C170.476 122.628 175.529 116.472 179.963 110.074C184.376 103.675 187.884 96.9016 194.084 92.2462C200.019 87.8114 207.234 84.1268 213.919 80.1332C233.776 68.3071 254.693 56.7017 271.086 41.7867C276.359 36.9989 282.184 31.7036 287.567 26.32C293.149 20.7379 297.54 14.3175 303.718 10.5225C310.712 6.22014 318.17 2.84436 325.914 1.10134C344.756 -3.13488 362.915 5.13898 372.667 14.8911C377.675 19.8995 381.316 26.298 388.465 31.0417C401.879 39.9113 412.624 48.5823 416.375 67.0275C417.301 71.5946 419 75.3675 419.728 79.4714C422.575 95.2469 413.815 103.697 406.954 113.427C412.999 136.219 399.033 155.9 380.389 159.165C377.256 159.717 373.792 159.408 370.306 159.496C367.085 159.584 364.393 160.533 361.238 161.173C358.017 161.813 354.817 161.636 351.486 161.835C348.573 162.033 346.257 163.026 343.41 164.196C338.005 166.424 332.357 168.344 326.929 168.895C313.779 170.241 299.041 169.292 286.575 170.572C285.273 177.566 283 183.59 279.845 188.73C285.207 196.872 292.289 206.668 294.981 218.649C297.893 231.6 296.459 247.375 293.304 260.018C287.237 284.244 272.542 301.784 252.95 311.47C254.053 318.509 254.296 328.239 254.296 334.681C254.296 337.836 258.113 338.189 260.694 339.734C267.6 343.86 273.359 348.934 279.183 352.84C299.504 338.675 331.055 330.246 363.599 336.358C389.501 341.234 408.123 352.619 424.472 366.96C426.701 368.924 429.679 372.895 432.548 372.013C455.008 365.107 481.794 363.32 509.219 361.577C484.552 345.647 468.158 315.442 472.571 273.808C476.057 240.889 491.501 218.781 510.233 201.505C513.08 198.88 517.36 196.011 517.978 193.43C519.015 188.995 517.934 184.031 518.309 179.971C519.566 166.512 522.655 156.473 526.715 146.346C543.395 104.778 570.489 76.934 613.822 60.9379C623.023 41.9632 641.821 32.3434 667.966 34.0423C694.244 35.7412 709.931 48.847 716.396 69.3441C739.232 81.9204 759.023 99.9685 772.217 124.834C784.573 148.133 794.965 181.449 789.029 216.641C808.666 238.947 825.324 267.211 821.308 311.47C819.654 329.629 812.196 345.559 803.481 357.539C797.612 365.615 788.257 374.793 778.593 380.397C776.762 381.456 768.356 383.905 768.841 386.796C769.172 388.693 777.269 389.884 779.608 390.502C806.438 397.54 832.318 406.896 853.257 418.413C874.835 430.261 895.354 444.889 908.416 464.482C909.894 466.688 912.718 473.042 914.13 473.55C915.917 474.212 919.359 473.417 921.874 473.55C929.597 473.947 935.642 475.182 941.71 476.903C965.252 483.567 985.175 496.319 1000.55 510.859C1021.05 530.253 1037.58 556.685 1034.86 599.643C1060.06 611.955 1081.95 629.804 1097.08 653.457C1110.65 674.682 1123.36 712.83 1110.54 745.925C1136.6 761.436 1157.32 787.934 1151.58 831.686C1151.29 833.893 1149.92 837.202 1150.23 839.078C1150.48 840.512 1153.23 842.762 1154.93 844.461C1166.91 856.442 1177.88 871.864 1183.17 889.184C1188.18 905.511 1189.09 927.398 1185.87 945.336C1184.98 950.234 1181.74 957.559 1181.83 962.148C1181.89 965.039 1189.2 971.592 1191.58 974.923C1202.02 989.463 1206.94 1005.06 1206.03 1030.74C1205.04 1059.65 1190.7 1077.06 1173.07 1091.62C1175.69 1097.99 1178.45 1107.7 1176.78 1117.52C1176.36 1120.01 1175.72 1121.07 1176.11 1123.24C1176.44 1125.04 1177.44 1126.61 1177.79 1128.95C1178.52 1133.69 1178.3 1138.99 1178.45 1143.07C1179.25 1161.89 1179.51 1182.43 1180.81 1199.91L1180.68 1199.97Z" clip-rule="evenodd" fill-rule="evenodd"/>
</g>
<path fill="white" d="M352.059 44.8556C346.918 41.4578 339.703 37.5745 330.194 39.141C322.383 40.4207 312.785 45.0541 311.704 51.585C317.683 51.4746 321.699 47.3709 327.171 46.5324C343.652 44.0392 350.69 54.2546 356.758 64.3597C360.751 71.0009 363.819 77.1347 367.172 85.5409C368.739 89.4462 371.1 94.278 370.526 97.9847C369.82 102.75 362.384 109.414 357.751 113.12C355.368 115.018 350.47 118.151 348.33 118.835C342.858 120.6 333.305 120.622 328.826 118.835C325.185 117.379 323.332 113.341 320.75 109.767C323.332 108.972 331.539 100.809 335.886 101.691C338.114 102.155 337.166 104.008 339.24 105.045C340.85 103.17 340.938 99.7939 343.608 98.9997C347.381 98.1833 349.323 100.853 352.345 99.6615C352.897 93.7264 342.593 95.1165 341.247 89.9095C340.674 87.7031 343.321 82.452 340.563 81.5032C336.967 80.2456 336.327 91.0788 335.511 92.2703C333.415 95.3151 328.759 96.705 325.097 98.9997C321.478 101.25 317.573 103.434 314.683 105.398C308.174 109.767 301.246 117.334 292.818 123.225C287.015 127.285 281.411 130.882 275.343 135.669C273.049 137.479 271.063 139.376 269.629 139.707C261.906 141.45 259.127 136.022 253.831 138.03C253.699 143.171 258.2 142.377 259.877 145.091C262.767 149.724 264.334 168.677 261.223 174.016C258.972 177.877 254.096 180.988 247.764 179.068C243.594 177.811 238.652 174.281 233.974 171.677C221.729 164.837 204.343 155.571 192.605 150.496C187.089 145.995 190.156 137.059 194.282 130.33C198.099 124.086 204.585 113.804 213.124 113.187C217.691 112.856 220.78 116.673 224.884 114.202C225.877 109.59 219.721 109.303 218.485 105.795C222.28 101.603 227.885 99.6837 232.606 96.7051C255.773 82.099 279.05 67.3384 301.555 50.6362C310.027 44.3481 320.574 36.6259 332.157 35.5006C343.255 34.4195 347.911 38.5232 351.992 44.9217L352.059 44.8556Z" clip-rule="evenodd" fill-rule="evenodd"/>
<path fill="white" d="M687.999 272.177C654.793 271.03 622.934 263.881 598.884 253.357C595.288 251.768 591.714 249.717 588.117 248.657C586.308 248.106 583.373 249.937 583.749 253.026C584.102 255.961 590.059 257.99 593.17 259.425C597.185 261.256 601.488 262.447 604.599 264.124C609.056 266.529 613.005 272.089 616.028 275.553C627.126 288.174 639.526 298.19 661.435 299.757C681.27 301.169 693.427 293.998 703.466 285.967C707.724 282.547 711.541 278.708 716.572 276.899C721.779 275.024 727.228 274.362 733.053 271.185C734.487 271.648 733.053 274.98 735.414 274.538C739.871 268.89 735.193 256.556 727.339 260.087C726.809 262.867 730.119 261.785 730.03 264.124C718.028 269.397 703.179 272.707 687.999 272.199V272.177ZM584.764 246.275C586.992 244.995 594.207 243.627 593.854 240.56C593.501 237.692 587.168 238.288 584.433 239.214C581.388 240.251 575.011 245.701 573.335 249.981C572.629 251.813 571.393 255.872 575.342 256.027C576.313 255.431 576.931 254.482 576.688 252.673C579.226 250.467 581.145 248.349 584.764 246.275ZM687.668 140.678C672.621 158.484 674.253 208.458 695.743 218.695C702.363 221.85 712.909 222.997 719.616 221.387C743.357 215.694 746.38 167.221 733.406 146.724C727.273 137.06 716.307 130.948 702.804 132.603C696.361 133.397 690.912 136.839 687.668 140.678ZM602.26 136.31C593.876 145.643 586.727 166.515 588.139 184.739C589.022 196.301 594.714 208.965 603.275 212.65C609.982 215.54 620.242 215.584 626.817 214.327C642.703 211.304 651.197 195.418 654.396 179.025C659.669 151.909 653.028 125.212 625.14 126.227C614.616 126.602 607.246 130.772 602.282 136.31H602.26ZM756.617 224.741C761.184 230.256 766.678 234.426 771.069 239.876C783.645 255.453 796.619 275.2 796.619 302.757C796.619 320.298 788.433 335.522 779.806 345.12C770.164 355.865 757.853 362.528 743.158 367.316C739.165 368.617 734.09 369.721 729.038 370.338C724.47 370.912 718.293 370.736 716.594 375.038C719.815 379.76 727.317 377.333 731.729 380.091C733.914 381.436 736.252 384.349 736.098 388.166C735.899 393.219 731.641 395.116 727.361 395.557C722.926 396.021 714.255 393.549 713.24 396.903C711.872 401.47 722.617 402.838 724.669 403.302C779.1 415.238 826.338 428.609 863.891 457.115C873.488 464.396 882.689 472.559 889.44 484.363C891.448 487.849 894.934 493.409 894.824 496.476C894.691 499.896 889.925 503.956 887.432 506.228C884.696 508.721 879.82 513.156 877.349 513.289C875.43 513.399 870.686 509.869 867.597 508.236C845.842 496.851 815.748 490.762 788.565 485.709C757.103 479.84 719.837 474.501 686.675 471.588C616.491 465.411 539.026 459.696 465.068 466.205C464.98 436.265 457.942 413.252 446.91 394.233C479.366 385.298 518.837 384.614 556.191 382.804C558.199 375.832 550.08 376.781 544.431 375.744C539.71 374.862 535.473 372.92 535.01 368.353C534.547 363.565 537.989 360.321 540.724 359.284C545.645 357.387 558.199 361.822 557.537 354.585C557.206 351.055 544.167 348.584 540.041 346.841C533.752 344.193 527.663 341.656 522.897 338.765C503.15 326.873 491.898 297.572 500.039 268.493C503.393 256.49 508.997 245.701 517.183 236.545C521 232.264 525.082 228.558 529.627 224.432C533.907 220.548 538.739 215.959 543.747 214.018C548.204 212.275 552.771 212.848 557.206 209.98C557.14 207.84 554.558 207.023 553.168 205.942C549.087 202.765 542.755 197.58 542.071 191.138C541.32 184.055 543.284 174.855 545.093 168.942C554.25 139.09 575.21 111.488 599.237 96.9702C603.893 94.146 609.696 90.9468 615.719 88.233C620.97 85.8501 629.045 84.1953 632.862 80.4886C635.135 78.2822 635.841 74.9285 637.231 72.7442C641.622 65.9045 651.197 56.351 664.126 57.6086C676.879 58.8442 686.521 66.5224 691.375 75.7671C693.074 79.0104 693.339 83.1362 695.743 86.534C698.766 90.8144 705.165 92.9767 710.195 96.2862C733.87 111.819 751.366 134.324 761.317 165.213C764.803 176.024 767.737 192.881 764.339 207.244C762.729 214.018 759.132 218.298 756.595 224.741H756.617Z" clip-rule="evenodd" fill-rule="evenodd"/>
<path fill="white" d="M366.511 122.547C370.085 118.951 375.292 116.965 378.955 113.457C386.081 116.303 387.339 133.711 378.624 134.969C373.13 135.763 366.577 128.902 366.511 122.525V122.547Z" clip-rule="evenodd" fill-rule="evenodd"/>
<path fill="white" d="M359.119 124.877C359.075 129.841 362.362 133.283 363.487 135.975C347.469 140.145 330.238 147.271 310.358 146.389C300.562 145.947 288.979 146.698 278.741 147.404C278.322 145.925 279.91 144.469 280.749 143.366C285.448 137.21 292.443 133.084 299.591 128.23C305.284 124.347 310.358 119.934 315.058 115.786C315.345 115.72 315.367 115.919 315.389 116.117C318.72 119.471 320.817 124.325 325.803 126.201C335.908 130.018 348.837 125.892 359.097 124.855L359.119 124.877Z" clip-rule="evenodd" fill-rule="evenodd"/>
<path fill="#1D1D1B" d="M624.103 151.45C635.995 151.715 642.438 164.004 643.277 174.992C644.159 186.531 639.812 197.806 634.87 204.91C634.936 204.645 635.157 204.513 635.532 204.579C642.438 198.004 648.991 186.487 649.984 172.631C651.241 154.98 645.461 138.101 630.811 135.299C595.928 128.658 582.359 182.736 601.885 204.579C597.45 197.364 595.884 182.648 599.855 173.646C601.51 176.249 602.393 178.544 605.239 179.36C617.043 182.758 620.551 159.9 608.592 158.51C612.586 154.804 616.91 151.295 624.059 151.45H624.103ZM625.118 126.231C653.006 125.216 659.648 151.891 654.374 179.029C651.175 195.445 642.681 211.308 626.795 214.331C620.22 215.589 609.96 215.545 603.253 212.654C594.692 208.97 589 196.305 588.118 184.744C586.705 166.519 593.854 145.669 602.238 136.314C607.224 130.776 614.594 126.606 625.096 126.231H625.118Z" clip-rule="evenodd" fill-rule="evenodd"/>
<path fill="#1D1D1B" d="M725.994 210.642C731.355 204.972 734.753 195.992 735.415 186.085C736.959 163.073 727.56 140.237 705.496 141.031C677.453 142.024 676.085 195.109 693.052 210.311C688.816 202.942 685.418 190.322 688.353 179.047C690.471 182.71 693.714 186.88 698.767 185.093C706.997 182.202 703.467 164.816 695.413 163.911C701.746 154.932 714.873 157.645 721.316 164.595C731.399 175.473 733.142 200.007 724.008 212.01C725.045 212.76 725.641 211.061 726.016 210.664L725.994 210.642ZM702.783 132.625C716.285 130.97 727.251 137.082 733.385 146.746C746.358 167.243 743.335 215.717 719.595 221.409C712.888 223.02 702.341 221.873 695.722 218.718C674.232 208.502 672.6 158.506 687.647 140.701C690.89 136.884 696.318 133.42 702.783 132.625Z" clip-rule="evenodd" fill-rule="evenodd"/>
<path fill="white" d="M723.986 211.99C733.12 199.987 731.377 175.453 721.294 164.575C714.852 157.625 701.724 154.934 695.392 163.891C703.467 164.796 706.975 182.182 698.745 185.072C693.67 186.86 690.449 182.69 688.331 179.027C685.397 190.301 688.794 202.944 693.031 210.291C676.064 195.089 677.432 142.004 705.474 141.011C727.56 140.239 736.937 163.075 735.393 186.065C734.731 195.972 731.355 204.93 725.972 210.622C725.597 211.019 725.001 212.718 723.964 211.968L723.986 211.99Z" clip-rule="evenodd" fill-rule="evenodd"/>
<path fill="white" d="M242.756 287.315C221.09 272.753 198.585 259.714 175.837 246.63C153.156 233.568 129.504 220.595 102.189 212.674C100.688 204.488 103.799 196.634 106.888 190.147C115.206 172.695 132.636 153.764 155.98 153.146C164.276 152.926 174.954 156.544 182.213 159.876C190.2 163.56 197.526 167.223 204.409 170.643C218.618 177.659 235.034 185.712 246.772 194.185C252.486 198.311 258.686 204.312 263.253 210.997C267.489 217.197 272.277 226.177 273.005 234.208C274.042 245.549 268.019 257.706 263.253 266.156C258.002 275.445 251.537 281.799 242.734 287.337L242.756 287.315Z" clip-rule="evenodd" fill-rule="evenodd"/>
<path fill="white" d="M94.467 235.861C99.4754 235.221 108.764 240.164 113.971 242.591C144.22 256.645 168.733 272.156 197.371 288.659C203.02 291.903 208.823 295.411 213.522 298.412C218.884 301.831 225.282 305.229 227.643 310.171C230.357 315.842 231.327 324.623 231.349 331.353C231.349 337.332 230.268 346.091 227.996 351.188C224.113 359.881 213.831 366.743 205.469 372.038C202.777 373.737 198.96 377.024 196.732 377.422C191.591 378.326 182.103 377.091 175.882 377.091C156.179 377.091 133.74 378.591 115.361 376.76C97.1145 374.928 79.4195 371.222 62.8938 365.993C57.5103 364.294 51.156 362.639 47.7582 360.278C43.2131 357.123 38.3591 348.717 35.6453 343.466C31.5194 335.434 28.7173 327.293 29.2468 316.901C30.3279 295.61 41.0068 278.179 51.4429 266.133C56.7161 260.021 63.0041 253.821 70.2851 248.658C77.191 243.76 84.781 238.465 93.827 235.883C94.0256 235.817 94.2902 235.905 94.5109 235.883L94.467 235.861Z" clip-rule="evenodd" fill-rule="evenodd"/>
<path fill="#1D1D1B" d="M576.688 252.672C576.931 254.482 576.313 255.453 575.342 256.026C571.393 255.85 572.606 251.79 573.335 249.981C575.011 245.722 581.388 240.273 584.433 239.214C587.168 238.287 593.501 237.691 593.854 240.56C594.229 243.626 587.014 244.994 584.764 246.274C581.167 248.348 579.226 250.466 576.688 252.672Z" clip-rule="evenodd" fill-rule="evenodd"/>
<path fill="#1D1D1B" d="M664.126 292.01C672.93 292.451 679.814 290.929 685.992 287.972C690.47 285.832 694.905 283.118 697.42 279.566C668.914 281.177 644.688 275.594 622.095 270.145C630.766 281.794 644.556 291.017 664.126 292.01ZM730.03 264.099C730.119 261.761 726.809 262.842 727.339 260.062C735.193 256.532 739.871 268.865 735.414 274.514C733.075 274.955 734.509 271.623 733.053 271.16C727.228 274.337 721.779 274.999 716.572 276.874C711.519 278.683 707.724 282.545 703.466 285.942C693.427 293.974 681.27 301.144 661.435 299.732C639.526 298.166 627.126 288.149 616.028 275.528C612.983 272.064 609.056 266.504 604.599 264.099C601.488 262.423 597.185 261.231 593.17 259.4C590.059 257.988 584.102 255.936 583.749 253.002C583.373 249.913 586.308 248.081 588.117 248.633C591.714 249.714 595.266 251.766 598.884 253.332C622.934 263.879 654.793 271.027 687.999 272.153C703.179 272.682 718.028 269.373 730.03 264.077V264.099Z" clip-rule="evenodd" fill-rule="evenodd"/>
<path fill="white" d="M622.096 270.168C644.689 275.618 668.915 281.2 697.421 279.589C694.906 283.141 690.471 285.855 685.992 287.996C679.814 290.952 672.93 292.474 664.127 292.033C644.535 291.062 630.767 281.84 622.096 270.168Z" clip-rule="evenodd" fill-rule="evenodd"/>
<path fill="white" d="M250.17 597.35C269.365 587.267 280.242 566.682 289.178 544.552C295.952 527.762 301.269 509.471 305.329 491.092C313.338 454.643 316.912 399.418 296.922 372.721C308.66 366.079 321.281 359.526 337.608 358.269C339.968 358.092 342.793 358.114 344.999 358.269C366.886 359.725 384.559 369.786 398.459 380.134C413.286 391.144 424.891 404.492 433.099 420.819C441.858 438.249 447.065 460.578 444.528 483.369C442.101 505.212 436.651 525.114 429.392 543.228C415.647 577.603 391.619 609.684 358.767 622.922C340.321 630.357 317.155 633.292 295.554 626.96C276.469 621.378 261.51 612.155 250.147 597.372L250.17 597.35Z" clip-rule="evenodd" fill-rule="evenodd"/>
<path fill="white" d="M248.492 363.98C262.216 372.276 275.586 384.455 283.463 398.951C292.2 415.036 292.576 436.107 289.178 458.148C283.397 495.678 271.593 535.15 252.861 561.053C242.932 574.776 227.686 583.249 209.484 587.287C189.604 591.677 168.093 589.096 150.309 582.234C117.368 569.569 93.4514 545.365 86.4131 507.924C107.396 507.946 124.76 507.659 137.865 500.532C150.684 493.56 160.415 483.455 169.483 473.284C183.162 457.95 195.341 440.034 204.453 420.155C205.843 417.11 207.52 413.447 208.822 409.718C210.058 406.188 210.367 401.489 212.176 398.621C213.588 396.37 217.647 394.737 220.582 392.906C231.327 386.176 244.322 376.888 248.492 363.98Z" clip-rule="evenodd" fill-rule="evenodd"/>
<path fill="white" d="M40.3221 384.148C60.6427 390.172 83.6108 395.93 108.587 397.938C133.916 399.968 160.238 398.159 187.619 398.269C178.86 419.98 165.71 438.226 151.633 454.421C136.85 471.432 122.156 487.671 92.4585 487.384C72.6012 487.186 56.4284 476.617 45.7055 466.865C36.3064 458.304 23.4434 439.638 23.1786 422.142C23.0683 414.486 26.1792 407.227 28.893 401.292C32.1364 394.254 35.2695 388.936 40.3221 384.148Z" clip-rule="evenodd" fill-rule="evenodd"/>
<path fill="white" d="M339.284 715.724C330.437 708.223 323.509 698.382 317.772 687.814C312.058 677.289 307.358 665.199 304.997 651.497C362.252 656.748 397.289 636.538 421.008 606.774C444.638 577.121 460.899 537.715 464.716 489.087C533.753 479.224 618.058 486.682 685.308 493.455C712.115 496.169 738.459 499.81 763.656 504.222C788.941 508.635 813.475 513.798 835.274 521.366C856.058 528.603 875.033 540.826 891.426 554.329C908.04 567.986 921.102 584.556 929.089 605.45C933.104 615.953 936.965 628.683 937.164 642.098C937.363 655.27 933.722 667.339 929.42 678.746C923.484 694.521 914.416 707.649 903.186 719.1C900.935 721.395 894.824 729.205 891.404 729.514C890.08 729.646 887.036 727.947 884.344 727.153C867.222 722.101 846.593 720.622 826.846 718.747C804.01 716.585 780.645 714.158 758.581 712.018C689.787 705.354 618.168 703.854 544.718 700.92C497.304 699.022 446.469 696.573 399.098 700.589C376.969 702.464 355.589 705.266 339.24 715.724H339.284Z" clip-rule="evenodd" fill-rule="evenodd"/>
<path fill="white" d="M916.337 497.137C942.526 501.285 962.494 513.177 979.218 528.07C987.117 535.108 994.795 543.228 1000.73 553.62C1008.87 567.851 1016.35 588.877 1008.12 606.418C1003.64 615.971 992.147 625.613 984.248 632.652C979.769 636.645 974.96 640.44 970.459 644.081C965.759 647.898 961.545 652.068 956.669 654.517C960.574 591.635 935.576 554.767 901.179 529.085C902.856 526.592 905.525 524.584 907.908 522.025C912.895 516.641 917.02 510.596 915.63 498.152C915.63 497.578 915.873 497.269 916.315 497.137H916.337Z" clip-rule="evenodd" fill-rule="evenodd"/>
<path fill="white" d="M1026.3 625.262C1050.66 637 1072.13 658.423 1084.13 684.789C1088.08 693.438 1092.67 704.977 1092.54 715.061C1092.43 724.04 1087.24 737.521 1082.78 743.633C1079.74 747.825 1070.19 753.65 1065.29 756.761C1046.14 768.962 1027.43 779.464 1008.45 791.732C987.183 805.499 967.149 821.187 944.225 834.447C941.224 836.19 935.885 839.411 934.142 839.499C930.832 839.654 925.338 836.675 922.029 835.131C918.079 833.278 914.439 830.917 911.945 829.085C913.755 804.683 913.733 781.384 908.592 760.49C907.908 757.71 905.988 754.091 906.231 752.414C906.606 749.943 915.343 743.81 917.329 742C927.964 732.182 938.289 718.061 944.578 705C946.012 702.043 947.38 697.564 948.946 695.247C951.064 692.114 955.411 689.688 959.029 686.841C968.892 679.141 979.946 669.72 988.97 662.285C1002.45 651.187 1016.66 639.382 1026.3 625.284V625.262Z" clip-rule="evenodd" fill-rule="evenodd"/>
<path fill="white" d="M439.497 719.759C457.942 718.876 478.924 719.715 498.009 720.421C594.825 724.039 686.697 725.672 778.46 735.556C803.502 738.248 833.024 740.212 857.823 744.978C865.523 746.456 877.68 748.64 880.681 752.722C883.902 757.068 886.086 764.592 887.741 770.218C889.639 776.683 891.117 783.324 892.11 790.053C897.868 829.26 878.938 858.032 859.831 877.139C855.175 881.794 850.873 887.178 845.71 888.899C829.56 894.326 810.849 896.996 792.25 899.335C773.143 901.74 753.241 902.953 733.053 903.703C673.128 905.932 607.511 907.388 546.417 903.703C496.752 900.702 449.58 895.363 397.775 893.289C387.162 892.87 375.225 891.568 366.841 893.289C364.922 893.686 360.487 888.722 358.435 886.56C342.284 869.46 330.083 847.397 327.502 817.28C325.428 792.966 334.187 764.46 344.314 749.015C348.308 742.926 354.067 735.998 359.781 732.887C378.579 722.583 412.778 721.038 439.475 719.781L439.497 719.759Z" clip-rule="evenodd" fill-rule="evenodd"/>
<path fill="white" d="M1094.21 767.862C1102.73 770.443 1112.02 780.394 1117.07 787.366C1124.79 798.045 1131.79 811.702 1127.49 826.705C1092.74 822.006 1057.06 829 1029.96 838.135C1001.55 847.732 976.989 861.301 957.331 878.489C954.264 873.017 951.02 867.744 949.608 860.661C986.521 839.37 1020.34 813.313 1057.21 791.382C1069.83 783.88 1082.5 776.665 1094.21 767.84V767.862Z" clip-rule="evenodd" fill-rule="evenodd"/>
<path fill="white" d="M1159.12 949.437C1131.37 939.464 1089.89 942.951 1063.61 950.783C1035.83 959.057 1010.99 971.964 996.361 992.153C988.33 986.284 981.601 977.105 975.842 967.265C969.863 957.027 963.552 944.429 964.082 930.286C964.391 921.439 967.039 910.495 970.811 903.39C975.136 895.227 987.006 887.152 995.699 881.526C1014.7 869.236 1036.78 859.705 1060.61 853.615C1073.47 850.328 1088.01 847.173 1100.96 846.224C1115.81 845.121 1124.48 853.107 1132.91 860.344C1138.38 865.044 1143.42 870.472 1147.72 876.495C1156.21 888.454 1164.2 904.56 1164.53 921.549C1164.73 932.14 1161.22 940.899 1159.15 949.459L1159.12 949.437Z" clip-rule="evenodd" fill-rule="evenodd"/>
<path fill="white" d="M852.087 911.776C852.087 911.776 852.506 911.445 852.771 911.445C856.875 911.224 861.994 920.932 863.869 923.889C872.893 938.076 880.682 955.661 880.682 977.702C880.682 999.038 874.062 1018.61 866.23 1033.85C863.538 1039.11 860.758 1045.15 857.493 1048.31C853.08 1052.56 841.849 1057.42 835.628 1060.42C812.24 1071.72 788.809 1081.45 765.355 1092.04C738.724 1104.04 710.306 1115.71 677.586 1122.97C673.019 1123.98 666.995 1126.23 663.796 1125.99C661.854 1125.84 659.648 1123.34 657.067 1121.29C642.792 1109.91 626.001 1099.6 609.983 1090.69C571.57 1069.31 528.7 1054.04 468.754 1054.04C441.659 1054.04 420.677 1057.2 399.474 1062.45C396.606 1063.15 392.48 1064.96 390.737 1064.81C388.861 1064.63 385.066 1060.73 382.992 1058.76C366.776 1043.19 354.839 1023.42 350.029 996.897C344.69 967.398 353.604 940.679 366.18 921.903C368.144 918.969 369.842 915.417 372.225 914.512C378.911 911.931 393.583 914.424 402.497 914.843C454.17 917.292 499.356 922.94 550.786 925.257C570.952 926.184 591.935 925.676 613.006 926.272C654.794 927.441 697.289 926.449 737.422 924.595C768.664 923.139 797.48 921.175 824.861 916.851C833.885 915.439 842.644 912.835 851.425 911.798C851.646 911.776 851.866 911.798 852.087 911.798V911.776Z" clip-rule="evenodd" fill-rule="evenodd"/>
<path fill="white" d="M1155.75 1071.17C1144.67 1060.91 1115.92 1060.21 1094.21 1063.1C1071.62 1066.12 1054.1 1073.78 1047.13 1090.35C1034.91 1086.33 1027.23 1079.14 1020.23 1069.16C1014.06 1060.36 1006 1046.55 1006.44 1033.51C1006.75 1024.57 1012 1013.06 1016.88 1006.61C1025.88 994.721 1041.48 986.227 1058.25 978.703C1074.27 971.51 1095.23 964.539 1114.4 964.252C1133.22 963.943 1150.48 971.18 1161.49 981.395C1171.72 990.927 1183.11 1006.57 1183 1024.44C1182.93 1034.79 1178.61 1045.03 1173.93 1052.35C1169.03 1060.01 1162.1 1065.85 1155.77 1071.17H1155.75Z" clip-rule="evenodd" fill-rule="evenodd"/>
<path fill="white" d="M904.554 1199.97H665.804C666.554 1183.27 665.87 1163.99 666.135 1147.86C706.224 1142.74 739.96 1129.75 772.062 1115.91C804.121 1102.1 835.208 1087.71 866.561 1072.54C897.339 1096.74 907.422 1144.26 904.554 1200V1199.97Z" clip-rule="evenodd" fill-rule="evenodd"/>
<path fill="white" d="M1156.76 1199.98H1024.93C1031.13 1179.39 1038.02 1160.88 1051.83 1148.19C1054.21 1146.01 1056.31 1143.82 1058.21 1141.46C1063.54 1134.87 1067.74 1129.48 1076.03 1126.33C1080.86 1124.47 1087.59 1124.96 1089.49 1120.28C1087.59 1118.58 1084.06 1118.87 1081.09 1118.94C1074.25 1119.11 1067.6 1120.83 1063.61 1122.97C1051.41 1099.5 1066.79 1084.27 1088.15 1078.25C1102.13 1074.3 1120.42 1071.79 1133.2 1076.24C1141.08 1078.98 1144.98 1085.42 1148.34 1093.06C1150.39 1097.73 1155.68 1112.87 1151.36 1117.26C1149.97 1118.67 1141.69 1118.25 1141.61 1121.63C1141.52 1124.87 1148.4 1124.76 1151.03 1127.01C1155.2 1130.61 1154.4 1139.19 1154.4 1147.2C1154.4 1165.29 1157.18 1182.72 1156.76 1200V1199.98Z" clip-rule="evenodd" fill-rule="evenodd"/>
<path fill="white" d="M645.616 1199.98H354.729C351.287 1159.82 360.598 1130.08 377.587 1107.51C382 1101.64 390.516 1090.65 397.091 1087.67C401.438 1085.69 407.351 1084.43 412.889 1082.97C418.295 1081.54 424.163 1080.1 429.701 1078.93C466.923 1071.15 506.417 1076.99 537.99 1086.66C573.909 1097.67 605.968 1115.65 633.834 1135.75C637.695 1138.53 643.608 1142.87 644.601 1145.83C645.704 1149.18 645.594 1154.28 645.947 1158.61C647.05 1172.29 646.101 1187.07 645.616 1199.98Z" clip-rule="evenodd" fill-rule="evenodd"/>
<path fill="white" d="M313.051 33.4274C312.257 34.1114 312.257 33.2729 313.051 33.0964C320.817 25.683 335.931 19.4831 348.706 26.367C358.149 31.4637 366.312 44.6136 373.924 53.9465C377.454 58.2931 381.691 62.8822 386.037 68.0672C389.656 72.3916 397.003 79.5844 396.473 85.8946C395.966 91.6091 387.03 100.037 383.699 103.391C378.293 108.797 374.189 114.092 367.548 117.512C367.261 117.446 367.239 117.644 367.217 117.843C370.659 113.849 374.189 110.076 377.631 106.083C380.786 102.442 386.699 96.9706 387.383 90.6162C389.06 75.3262 376.307 67.9789 369.887 58.0061C368.894 56.4396 368.474 54.5643 367.526 52.9536C365.915 50.1957 363.621 47.504 361.48 44.8784C357.222 39.6935 353.14 32.1918 347.029 29.4118C335.269 24.0503 322.715 30.0074 313.073 33.4493L313.051 33.4274Z" clip-rule="evenodd" fill-rule="evenodd"/>
<path fill="white" d="M378.954 54.2812C384.161 57.9438 391.972 61.8933 393.075 70.7628C388.221 65.4014 383.852 59.5765 378.954 54.2812Z" clip-rule="evenodd" fill-rule="evenodd"/>
<path fill="white" d="M368.541 69.4141C372.799 74.246 382.573 82.4536 378.293 92.6249C374.961 84.9688 372.358 76.5847 368.541 69.4141Z" clip-rule="evenodd" fill-rule="evenodd"/>
<path fill="white" d="M608.637 158.506C620.596 159.896 617.065 182.754 605.284 179.356C602.437 178.54 601.555 176.245 599.9 173.642C595.907 182.644 597.495 197.36 601.93 204.575C582.382 182.732 595.951 128.654 630.855 135.295C645.506 138.097 651.286 154.976 650.029 172.627C649.036 186.461 642.461 197.978 635.577 204.575C635.18 204.531 634.981 204.641 634.915 204.906C639.857 197.802 644.204 186.505 643.321 174.988C642.483 164 636.04 151.711 624.148 151.446C616.999 151.292 612.675 154.8 608.681 158.506H608.637Z" clip-rule="evenodd" fill-rule="evenodd"/>
</svg>