<?xml version="1.0" encoding="UTF-8" standalone="no"?>
<svg viewBox="0 0 32 32" version="1.1" xmlns="http://www.w3.org/2000/svg" xmlns:xlink="http://www.w3.org/1999/xlink" style="background: #27509B;">
    <g stroke="none" stroke-width="1" fill="none" fill-rule="evenodd">
        <rect fill="#27509B" x="0" y="0"/>
        <path d="M0,32 L1.63179667e-15,30.324631 L0.7,30.1308383 C1.70625,29.8557777 2.88125,29.5932199 3.96875,29.3994272 C4.4875,29.3119079 4.90625,29.2368914 4.90625,29.23064 C4.90625,29.2243886 4.9,29.0305959 4.8875,28.799295 L4.8625,28.3804527 L4.54375,28.1491518 C3.0625,27.0864177 2.1875,25.7236175 1.81875,23.8919641 C1.40625,21.8290097 1.75625,19.4097268 2.7375,17.621833 C3.14375,16.8779192 3.45625,16.4715797 4.1875,15.7151631 L4.91875,14.9649978 L4.95625,14.2148326 C5.05625,12.2706544 5.7375,10.1639403 6.76875,8.61985021 C7.975,6.80069952 9.4875,5.51916725 11.60625,4.51269556 C12.30625,4.18137258 12.30625,4.18137258 12.6875,3.65000554 C12.89375,3.3624422 13.18125,3.02486785 13.31875,2.90609168 C13.80625,2.49350081 14.6375,2.13717232 15.34375,2.03715029 C15.83125,1.96838514 16.975,1.99964203 17.425,2.09341268 C18.51875,2.31846225 19.35625,2.94359995 19.86875,3.92506613 C20.0875,4.35015976 20.175,4.45643317 20.425,4.59396346 C21.4,5.15033601 21.73125,5.3691342 22.18125,5.7504682 C23.64375,7.00074358 24.89375,9.05119522 25.65625,11.4454726 C26.03125,12.6269828 26.14375,13.3271371 26.15,14.5274014 L26.15625,15.5901355 L26.68125,16.3090439 C28.1375,18.3157359 28.75,19.959848 28.85625,22.1228244 C28.9625,24.3358119 28.3,26.2174763 26.9125,27.6490416 C26.31875,28.2616766 25.7,28.7117757 24.6875,29.2618969 C24.04375,29.611974 23.84375,29.7495043 23.84375,29.843275 C23.84375,29.9620511 23.90625,29.9683025 25.40625,30.0058108 C27.875,30.0683245 29.425,30.3121282 31.3,30.9185118 L32,31.1435614 L32,32 L31.959,31.999 L31.9406336,32 L0,32 Z" id="Combined-Shape" fill="#FFFFFF"/>
        <path d="M15.34375,2.03715029 C15.83125,1.96838514 16.975,1.99964203 17.425,2.09341268 C18.51875,2.31846225 19.35625,2.94359995 19.86875,3.92506613 C20.0875,4.35015976 20.175,4.45643317 20.425,4.59396346 C21.4,5.15033601 21.73125,5.3691342 22.18125,5.7504682 C23.64375,7.00074358 24.89375,9.05119522 25.65625,11.4454726 C26.03125,12.6269828 26.14375,13.3271371 26.15,14.5274014 L26.15625,15.5901355 L26.68125,16.3090439 C28.1375,18.3157359 28.75,19.959848 28.85625,22.1228244 C28.9625,24.3358119 28.3,26.2174763 26.9125,27.6490416 C26.31875,28.2616766 25.7,28.7117757 24.6875,29.2618969 C24.04375,29.611974 23.84375,29.7495043 23.84375,29.843275 C23.84375,29.9620511 23.90625,29.9683025 25.40625,30.0058108 C27.875,30.0683245 29.425,30.3121282 31.3,30.9185118 L32,31.1435614 L32,32 L30.0588759,31.999661 C28.9744722,31.9964714 28.45375,31.9704101 28.15625,31.9062293 C26.725,31.6124146 24.1,31.3498568 21.84375,31.2748403 C20.55625,31.237332 19.90625,31.1685669 19.775,31.0622935 C19.59375,30.906009 19.7,30.6809595 20.03125,30.5121723 C20.1,30.4809154 20.5375,30.3871447 21,30.3183796 C22.1625,30.1308383 22.125,30.1370897 22.125,30.0058108 C22.125,29.8245208 21.8375,29.5182034 21.6,29.4369355 C21.1375,29.2869024 21.075,28.9555794 21.45625,28.6555133 C21.5625,28.5679941 22.0625,28.2804307 22.5625,28.0241243 C24.83125,26.842614 25.53125,26.3487552 26.15625,25.4673111 C27.2625,23.9107182 27.51875,22.1540813 26.90625,20.3224279 C26.5875,19.3784699 26.21875,18.7220754 25.35,17.5468165 C24.3,16.1340053 24.18125,15.846442 24.4125,15.2588125 C24.75625,14.3836198 24.31875,12.2581516 23.43125,10.4515037 C22.25625,8.05722629 20.7375,6.49438205 18.58125,5.46290486 C17.5625,4.96904608 17.39375,4.75024788 18.05,4.74399651 C18.35,4.74399651 18.3625,4.71273962 18.1875,4.36266251 C17.91875,3.84379823 17.225,3.53122938 16.3125,3.53122938 C15.7125,3.53122938 15.23125,3.63125141 14.80625,3.84379823 C14.49375,4.00008265 14.09375,4.35641114 14.15625,4.42517628 C14.18125,4.44393041 14.46875,4.49394143 14.79375,4.53770107 C15.3875,4.61271759 15.58125,4.68773411 15.46875,4.8002589 C15.43125,4.83151578 15,5.00030296 14.5,5.16909014 C13.3625,5.56292689 12.725,5.83798747 12.05625,6.21932147 C10.46875,7.11326837 9.3625,8.11348868 8.46875,9.45753473 C7.3,11.2141716 6.825,12.4581957 6.7625,13.9272692 L6.73125,14.6961886 L7.00625,14.6649317 C7.15625,14.652429 7.5375,14.5961666 7.85,14.5524069 C8.36875,14.4773904 8.4375,14.4836418 8.5875,14.5774124 C8.775,14.70244 8.8,14.9274896 8.6375,15.0775226 C8.58125,15.1275336 8.29375,15.3088235 8,15.465108 C6.75625,16.1527594 5.4375,17.3530238 4.70625,18.4595175 C3.35625,20.5099692 3.2,23.0730337 4.325,24.7921624 C5.04375,25.8986561 6.2125,26.7300892 7.88125,27.3364728 C8.88125,27.6928013 9.125,27.8490857 9.125,28.1241463 C9.125,28.2241683 9.05625,28.3491959 8.9625,28.4429665 C8.83557692,28.5646279 8.78025148,28.5878209 8.33079483,28.5920776 L7.90326646,28.5925451 C7.5275463,28.590144 7.15347222,28.578413 7.03125,28.5617427 L6.78125,28.5304858 L6.7625,28.8430546 C6.75,29.0118418 6.76875,29.2556455 6.80625,29.3806731 L6.875,29.6057226 L7.73125,29.6807392 C9.075,29.7995153 10.675,29.993308 10.93125,30.0620731 C11.2875,30.1558438 11.5125,30.3558879 11.4875,30.5496805 C11.4625,30.7747301 11.3,30.805987 9.78125,30.8747521 C7.75625,30.9622714 5.58125,31.1435614 3.7,31.3748623 C2.1375,31.568655 2.20625,31.5373981 2.6875,31.7874532 L3.09375,31.9937486 L1.55,32 L1.8369702e-15,32 L1.63179667e-15,30.324631 L0.7,30.1308383 C1.70625,29.8557777 2.88125,29.5932199 3.96875,29.3994272 C4.4875,29.3119079 4.90625,29.2368914 4.90625,29.23064 C4.90625,29.2243886 4.9,29.0305959 4.8875,28.799295 L4.8625,28.3804527 L4.54375,28.1491518 C3.0625,27.0864177 2.1875,25.7236175 1.81875,23.8919641 C1.40625,21.8290097 1.75625,19.4097268 2.7375,17.621833 C3.14375,16.8779192 3.45625,16.4715797 4.1875,15.7151631 L4.91875,14.9649978 L4.95625,14.2148326 C5.05625,12.2706544 5.7375,10.1639403 6.76875,8.61985021 C7.975,6.80069952 9.4875,5.51916725 11.60625,4.51269556 C12.30625,4.18137258 12.30625,4.18137258 12.6875,3.65000554 C12.89375,3.3624422 13.18125,3.02486785 13.31875,2.90609168 C13.80625,2.49350081 14.6375,2.13717232 15.34375,2.03715029 Z M11.2875,20.05987 C11.3,20.05987 11.74375,20.2786682 12.2625,20.5474774 C15.1125,22.0102996 18.94375,22.5416667 21.1875,21.7852501 C21.7375,21.5977088 21.80625,21.5414464 21.7,21.3726592 C21.59375,21.1976206 21.60625,21.1726151 21.79375,21.1976206 C22.04375,21.2288775 22.20625,21.4976867 22.2375,21.9352831 C22.2625,22.247852 22.25,22.3103657 22.1625,22.3103657 C22.10625,22.3103657 22.0625,22.2603547 22.0625,22.1853382 L22.0627442,22.1183437 C22.0591942,22.0400583 22.01875,22.0614473 21.68125,22.1790868 C21.0625,22.3916336 20.50625,22.7042025 19.83125,23.210564 C18.6125,24.1357678 18.33125,24.2482926 17.25,24.2920522 C16.3375,24.3295605 15.91875,24.2482926 15.21875,23.9044669 C14.6125,23.6106521 13.9625,23.0355255 13.1875,22.1040703 L12.5375,21.3101454 L11.925,21.053839 C11.14375,20.722516 10.8875,20.4287013 11.1625,20.1598921 C11.2125,20.1036297 11.26875,20.05987 11.2875,20.05987 Z M13.8848937,21.9238694 L13.875,21.9290317 C13.875,21.9540372 13.95625,22.0978189 14.05,22.2541033 C14.39375,22.7917218 15.05,23.2293181 15.925,23.5168815 C16.5,23.6981714 17.68125,23.7106742 18.1875,23.5356356 C18.5875,23.3981053 19.11875,23.060531 19.2375,22.879241 C19.3125,22.7479621 19.30625,22.7479621 18.6,22.7479621 C17.7625,22.7479621 16.675,22.6166832 15.75,22.4041364 C15.3875,22.3228685 14.81875,22.1665841 14.4875,22.066562 C14.15,21.96654 13.875,21.9040262 13.875,21.9290317 Z M11.0375,19.3722186 C11.34375,19.2784479 11.775,19.3222075 11.8,19.4534865 C11.81875,19.5347544 11.71875,19.6097709 11.39375,19.7535526 C10.9375,19.9535966 10.66875,20.1723948 10.51875,20.4537068 C10.45,20.5974884 10.4125,20.6162426 10.3375,20.5537288 C10.21875,20.4537068 10.225,20.2849196 10.36875,20.009859 C10.51875,19.7160443 10.80625,19.4472351 11.0375,19.3722186 Z M19.94375,10.8703459 C20.64375,10.7265642 21.4,10.9578652 21.8625,11.4579753 C22.89375,12.5769718 23.09375,15.0775226 22.2875,16.7841485 C22.0375,17.3092642 21.75625,17.6405872 21.4125,17.8281285 C21.2,17.9406532 21.05,17.9656588 20.5625,17.9656588 C20.2375,17.9656588 19.8375,17.9281505 19.66875,17.8781395 C18.61875,17.571822 18.0375,16.0214805 18.2,13.9335206 C18.3375,12.1331241 18.9375,11.0828927 19.94375,10.8703459 Z M14.4078993,10.2039665 L14.53125,10.2077 C15.45625,10.2452082 16.08125,10.8078321 16.4125,11.9018231 C16.59375,12.4832012 16.575,13.9710289 16.3875,14.6836859 C16.19375,15.3838401 16.0375,15.7526713 15.7,16.2652842 C15.19375,17.040455 14.625,17.3405211 13.64375,17.3342697 C13.1125,17.3342697 13.04375,17.3217669 12.65,17.1217229 C12.1625,16.8716678 11.9125,16.5528476 11.7125,15.9589668 C11.6125,15.6526493 11.59375,15.4213483 11.6,14.5274014 C11.6,13.5896949 11.61875,13.3959022 11.7625,12.8645352 C12.15625,11.3954616 12.88125,10.4952633 13.85625,10.2452082 C13.9875,10.2139513 14.29375,10.1951972 14.53125,10.2077 Z M20.4375,11.5142377 C20.0875,11.4892322 19.98125,11.5079864 19.70625,11.651768 C19.3,11.8580635 19.1,12.0893644 18.8375,12.6519883 C18.55625,13.2708747 18.4375,13.8647555 18.4375,14.6899372 C18.4375,15.4463538 18.5375,15.9527154 18.78125,16.4340714 C19.0125,16.8966733 19.13125,16.9404329 18.98125,16.5090879 C18.84375,16.1027484 18.775,15.3338291 18.8375,14.9087354 L18.88125,14.6211721 L19.0875,14.8399703 C19.31875,15.083774 19.41875,15.1025281 19.68125,14.9649978 C19.8625,14.8774785 20.0625,14.4898932 20.0625,14.2398381 C20.0625,14.0335427 19.875,13.65846 19.7,13.5146784 C19.5625,13.4021536 19.54375,13.3583939 19.6,13.2708747 C19.79375,12.9458031 20.34375,12.7895186 20.76875,12.9333003 C21.1,13.0395737 21.525,13.5459352 21.68125,14.0147885 C21.98125,14.9212382 21.98125,16.1715136 21.68125,16.8654164 C21.525,17.2154935 21.66875,17.1029687 21.89375,16.6966292 C22.2,16.1277539 22.3375,15.4901135 22.3375,14.5586583 C22.34375,13.6272031 22.275,13.2396178 21.99375,12.6519883 C21.79375,12.214392 21.45625,11.8518121 21.1,11.6705222 C20.95,11.5892543 20.675,11.5267405 20.4375,11.5142377 Z M15.21875,11.120401 C14.8,10.8640945 13.94375,10.8640945 13.41875,11.1141496 C12.35,11.6330139 11.59375,13.6647114 11.9,15.1900474 C12,15.665152 12.225,16.1840163 12.375,16.277787 C12.40625,16.2965411 12.3875,16.1965191 12.33125,16.046486 C12.2,15.7026603 12.18125,14.6274235 12.30625,14.2835977 L12.3875,14.0460454 L12.56875,14.2398381 C12.8,14.4961445 13.075,14.5023959 13.30625,14.2523408 C13.4875,14.0585482 13.625,13.6897169 13.625,13.408405 C13.625,13.1896068 13.46875,12.8895407 13.3125,12.8082728 C13.1375,12.7145021 13.15625,12.6707425 13.44375,12.4832012 C13.98125,12.1331241 14.525,12.2081406 15.00625,12.6832452 C15.6875,13.3646453 15.76875,14.652429 15.21875,16.0027264 C15.13125,16.2152732 15.075,16.4028145 15.0875,16.4153173 C15.13125,16.4653283 15.50625,15.8714475 15.68125,15.4776107 C16.4625,13.7209738 16.25625,11.7642928 15.21875,11.120401 Z" id="Combined-Shape" fill="#000000" fill-rule="nonzero"/>
    </g>
</svg>